<svg 
 xmlns="http://www.w3.org/2000/svg"
 xmlns:xlink="http://www.w3.org/1999/xlink"
 width="7in" height="7in">
 
 <!-- pink: -->
<path fill-rule="evenodd"  fill="rgb(235, 163, 177)"
 d="M324.500,-0.000 C503.716,-0.000 649.000,144.388 649.000,322.500 C649.000,500.612 503.716,645.000 324.500,645.000 C145.284,645.000 -0.000,500.612 -0.000,322.500 C-0.000,144.388 145.284,-0.000 324.500,-0.000 Z"/>

<!-- blue: -->
<path fill-rule="evenodd"  stroke="rgb(205, 10, 94)" stroke-width="0px" stroke-linecap="butt" stroke-linejoin="miter" fill="rgb(128, 148, 221)"
 d="M442.000,575.000 C424.335,575.000 406.665,575.000 389.000,575.000 C387.000,571.334 385.000,567.666 383.000,564.000 C382.333,564.000 381.667,564.000 381.000,564.000 C378.667,570.333 376.333,576.667 374.000,583.000 C373.667,583.000 373.333,583.000 373.000,583.000 C371.667,567.335 370.333,551.665 369.000,536.000 C368.667,536.000 368.333,536.000 368.000,536.000 C365.334,556.998 362.666,578.002 360.000,599.000 C359.333,598.667 358.667,598.333 358.000,598.000 C356.000,582.002 354.000,565.998 352.000,550.000 C351.667,550.000 351.333,550.000 351.000,550.000 C349.000,558.999 347.000,568.001 345.000,577.000 C291.667,576.333 238.333,575.667 185.000,575.000 C185.009,554.998 188.450,535.524 196.000,517.000 C201.281,504.043 218.470,478.503 239.000,456.000 C252.365,441.350 263.594,430.607 272.000,410.000 C275.751,400.805 279.213,384.197 281.000,367.000 C282.204,355.415 282.867,343.792 283.000,332.000 C276.936,324.835 271.592,317.157 267.000,309.000 C258.621,294.116 252.923,277.941 250.000,261.000 C248.333,248.000 246.667,235.000 245.000,222.000 C238.930,255.346 237.526,286.750 242.000,316.000 C243.743,327.393 249.306,357.649 236.000,385.000 C231.640,393.963 226.104,401.283 220.000,407.000 C214.574,412.081 205.187,418.347 193.000,423.000 C169.212,432.082 149.615,430.899 139.000,428.000 C124.376,424.005 117.053,416.790 107.000,409.000 C118.315,405.754 128.567,400.044 137.000,392.000 C143.719,385.590 149.526,377.426 153.000,369.000 C169.535,328.898 135.194,276.856 117.000,221.000 C114.445,213.156 110.521,198.729 113.000,182.000 C115.338,166.225 123.921,146.569 147.000,125.000 C162.752,110.279 180.199,101.394 189.000,99.000 C228.952,88.133 272.426,109.301 282.000,120.000 C282.837,120.936 285.559,124.187 289.000,124.000 C292.213,123.826 294.443,120.734 295.000,120.000 C299.143,114.539 315.060,109.042 336.000,105.000 C351.430,102.021 367.731,101.050 385.000,102.000 C404.281,103.061 423.891,106.633 433.000,110.000 C461.565,120.561 486.070,141.458 501.000,168.000 C512.264,188.025 516.525,208.481 516.000,216.000 C514.318,240.076 492.762,256.385 497.000,278.000 C499.987,293.236 512.826,306.111 534.000,317.000 C532.000,322.000 530.000,327.000 528.000,332.000 C520.859,336.146 513.960,340.417 507.000,345.000 C499.550,349.905 490.436,355.905 487.000,359.000 C464.405,379.350 458.754,418.985 435.897,424.980 C433.131,425.706 425.628,425.802 418.000,424.000 C407.176,421.442 397.535,415.470 390.000,407.000 C386.333,414.667 382.667,422.333 379.000,430.000 C378.050,445.783 380.383,460.995 387.000,475.000 C392.975,487.646 402.219,496.841 408.000,503.000 C424.645,520.732 435.768,544.830 442.000,575.000 Z"/>

<!-- yellow: -->
<path fill-rule="evenodd"  fill="rgb(250, 229, 162)"
 d="M329.524,139.626 C302.741,139.252 280.725,160.660 280.351,187.444 C279.977,214.227 301.385,236.242 328.169,236.616 C354.952,236.991 376.967,215.582 377.341,188.799 C377.716,162.015 356.307,140.000 329.524,139.626 Z"/>

<!-- magenta outline: -->
<path fill-rule="evenodd"  stroke="rgb(205, 10, 94)" stroke-width="0px" stroke-linecap="butt" stroke-linejoin="miter" fill="rgb(205, 10, 94)"
 d="M324.000,569.000 C329.333,569.000 334.667,569.000 340.000,569.000 C344.667,560.667 349.333,552.333 354.000,544.000 C356.000,552.000 358.000,560.000 360.000,568.000 C363.333,552.333 366.667,536.667 370.000,521.000 C372.000,535.333 374.000,549.667 376.000,564.000 C378.000,561.000 380.000,558.000 382.000,555.000 C384.333,560.000 386.667,565.000 389.000,570.000 C404.000,569.667 419.000,569.333 434.000,569.000 C432.331,557.510 429.059,546.465 424.000,536.000 C413.780,514.858 400.069,506.184 389.000,487.000 C372.135,457.770 371.745,437.483 377.000,423.000 C379.738,415.456 384.196,408.788 390.000,403.000 C398.022,406.576 405.674,410.225 413.000,414.000 C422.133,418.706 432.100,424.079 440.000,420.000 C443.410,418.239 445.307,415.314 446.000,414.000 C454.914,397.110 465.355,379.437 474.000,367.000 C480.541,357.589 486.484,351.027 495.000,346.000 C499.013,343.631 503.278,342.051 508.000,340.000 C511.697,338.395 515.304,336.754 519.000,335.000 C521.346,334.237 523.424,332.870 525.000,331.000 C527.342,328.221 528.352,324.602 528.000,321.000 C526.070,318.930 524.094,316.954 522.000,315.000 C517.580,310.874 513.399,308.148 509.000,304.000 C499.584,295.122 494.343,284.826 493.000,280.000 C491.182,273.464 490.896,266.921 492.000,261.000 C494.055,249.981 503.656,238.640 505.000,236.000 C512.621,221.030 511.954,204.842 510.000,195.000 C507.787,183.857 502.783,175.003 495.000,165.000 C473.817,137.774 447.235,118.708 436.000,114.000 C425.112,109.437 400.522,104.255 374.000,105.000 C358.296,105.441 342.888,107.801 328.000,112.000 C313.690,116.036 299.959,121.731 287.000,129.000 C273.571,116.809 257.496,108.176 240.000,104.000 C217.118,98.539 194.753,100.413 176.000,109.000 C165.766,113.686 151.253,123.886 138.000,141.000 C126.769,155.503 120.522,171.301 119.000,179.000 C117.106,188.583 117.098,201.865 121.000,218.000 C124.432,232.193 129.406,242.356 135.000,254.000 C142.909,270.462 149.741,288.171 155.000,307.000 C156.823,313.527 159.665,329.585 160.000,344.000 C160.362,359.549 157.561,372.046 154.000,379.000 C146.389,393.863 132.513,404.329 116.000,410.000 L116.000,410.000 C122.956,416.506 131.033,421.323 140.000,424.000 C146.670,425.991 166.747,426.585 188.000,419.000 C204.116,413.248 217.735,403.537 222.000,399.000 C229.061,391.489 234.639,381.947 238.000,371.000 C244.109,351.103 239.219,336.219 236.000,311.000 C235.097,303.929 234.442,296.655 234.000,289.000 C231.161,239.811 240.831,214.114 245.000,214.000 C245.193,213.995 246.869,214.000 247.000,214.000 L247.000,214.000 L247.000,214.000 L247.000,214.000 C248.129,223.146 249.441,232.007 251.000,241.000 C254.777,262.792 260.562,285.916 265.000,294.000 C269.808,302.757 278.189,322.189 287.000,331.000 C287.000,331.000 287.000,331.000 287.000,331.000 C286.998,331.000 287.115,339.211 287.000,347.000 C286.794,360.881 285.742,375.677 284.000,384.000 C282.062,393.263 279.071,402.648 275.000,412.000 C265.254,434.386 252.994,447.710 239.613,462.849 C218.562,486.667 203.148,507.956 197.000,526.000 C192.151,540.231 189.928,554.961 190.000,570.000 C223.667,570.000 257.333,570.000 291.000,570.000 C291.000,573.000 291.000,576.000 291.000,579.000 L291.000,579.000 C254.333,578.667 217.667,578.333 181.000,578.000 L181.000,578.000 C180.194,557.910 183.106,538.392 190.000,520.000 C194.012,509.296 208.871,485.412 226.000,465.000 C227.338,463.406 243.213,444.458 247.000,440.000 C252.789,433.185 261.977,421.381 268.000,407.000 C271.626,398.342 275.370,383.161 277.000,367.000 C278.211,354.994 278.005,345.051 278.000,333.000 C278.001,333.001 272.946,326.629 271.000,324.000 C265.931,317.150 259.193,304.548 254.000,291.000 C249.113,278.248 245.458,264.832 243.000,251.000 C242.667,256.333 242.333,261.667 242.000,267.000 C242.004,282.446 243.315,297.438 246.000,312.000 C248.273,324.327 250.599,334.204 250.000,348.000 C248.892,373.504 240.090,391.079 233.000,400.000 C226.768,407.842 212.498,419.700 191.000,427.000 C163.418,436.366 141.828,433.403 131.000,429.000 C119.635,424.378 109.828,416.787 102.000,407.000 L102.000,407.000 L102.000,407.000 C103.178,406.553 136.852,389.975 143.000,380.000 C147.073,373.391 149.029,366.718 150.000,359.000 C152.575,338.522 148.750,315.966 147.000,310.000 C132.451,260.402 103.138,224.458 110.506,179.745 C112.877,165.356 119.076,150.872 128.000,138.000 C136.698,125.453 147.980,114.832 161.000,107.000 C183.884,93.234 214.560,86.546 245.000,95.000 C260.981,99.438 275.584,107.679 288.000,119.000 C306.419,109.204 325.894,102.485 346.000,99.000 C384.907,92.256 416.023,98.084 434.000,105.000 C459.091,114.652 483.561,132.852 503.000,160.000 C515.580,177.569 520.473,193.533 521.000,204.000 C521.566,215.243 519.533,226.508 515.000,236.000 C508.958,248.651 500.579,254.796 500.000,268.000 C499.812,272.277 500.493,276.750 502.000,281.000 C503.565,285.414 508.625,293.104 517.000,300.000 C525.279,306.817 531.600,309.212 535.000,317.000 C536.654,320.789 537.237,324.840 537.000,329.000 C534.575,333.752 531.301,337.863 527.000,341.000 C520.597,345.669 512.470,346.910 508.000,349.000 C505.000,350.403 499.714,354.083 495.000,358.000 C483.571,367.496 474.740,381.169 472.000,386.000 C459.231,408.517 453.878,424.844 441.000,429.000 C436.365,430.496 422.491,428.835 407.000,422.000 C401.847,419.726 396.848,417.060 392.000,414.000 C388.202,419.518 385.463,425.529 384.000,432.000 C381.494,443.084 383.706,461.769 398.000,485.000 C408.525,502.105 419.865,509.661 430.000,527.000 C438.836,542.117 443.690,559.197 445.000,578.000 C425.000,578.000 405.000,578.000 385.000,578.000 C384.000,576.000 383.000,574.000 382.000,572.000 C379.667,578.667 377.333,585.333 375.000,592.000 C373.000,583.000 371.000,574.000 369.000,565.000 C367.713,573.923 366.108,582.653 364.138,591.446 C362.885,597.040 361.526,602.473 360.000,608.000 C360.000,607.996 351.000,568.000 351.000,568.000 C350.000,571.000 349.000,574.000 348.000,577.000 C337.000,577.000 326.000,577.000 315.000,577.000 C316.333,474.333 317.667,371.667 319.000,269.000 C321.667,269.000 324.333,269.000 327.000,269.000 C326.000,369.000 325.000,469.000 324.000,569.000 ZM336.000,249.000 L338.000,250.000 L336.000,249.000 ZM483.000,266.000 L483.000,266.000 C482.333,268.333 481.667,270.667 481.000,273.000 C483.333,276.000 485.667,279.000 488.000,282.000 L488.000,282.000 L488.000,282.000 L488.000,282.000 C485.000,282.667 482.000,283.333 479.000,284.000 C468.824,284.914 459.082,283.729 450.000,280.000 C445.128,278.000 437.000,273.000 437.000,273.000 L437.000,273.000 C437.000,273.000 437.014,272.949 439.000,265.000 C444.544,266.585 450.224,267.590 456.000,268.000 C459.679,268.261 463.676,268.257 468.000,268.000 C473.029,267.701 478.031,267.034 483.000,266.000 ZM300.000,255.000 L300.000,255.000 C299.993,254.996 307.137,260.071 317.000,262.000 C324.034,263.376 330.961,263.024 337.000,261.000 C341.286,259.564 347.000,256.000 347.000,256.000 L347.000,256.000 C347.000,256.000 346.000,250.001 346.000,250.000 L346.000,250.000 C346.001,250.001 343.110,251.122 340.000,252.000 C335.486,253.274 331.142,253.914 327.000,254.000 C323.286,254.077 319.597,253.740 316.000,253.000 C312.161,252.210 308.358,250.748 304.000,249.000 L304.000,249.000 L304.000,249.000 C304.000,249.000 300.002,255.000 300.000,255.000 ZM297.000,238.000 L297.000,238.000 C302.039,240.750 305.513,243.142 311.000,245.000 C328.416,250.896 353.000,242.000 353.000,242.000 L353.000,242.000 C352.997,242.000 353.041,242.996 353.000,243.000 C352.927,243.007 352.000,234.999 352.000,235.000 L352.000,235.000 C352.169,234.951 332.251,240.585 322.000,239.000 C317.362,238.283 301.006,231.003 301.000,231.000 L301.000,231.000 C301.002,231.001 297.000,237.999 297.000,238.000 ZM314.000,233.000 C314.000,232.999 315.877,233.364 318.017,233.245 C319.279,233.174 320.536,233.022 322.000,233.000 C321.999,233.002 322.728,221.915 320.000,209.000 C317.241,195.935 312.001,185.998 312.000,186.000 C312.001,186.002 316.477,182.622 320.000,184.000 C322.224,184.870 323.046,187.978 325.000,188.000 C326.625,188.018 327.246,185.966 329.000,186.000 C330.702,186.033 332.000,188.001 332.000,188.000 C332.000,188.002 327.677,204.612 327.000,211.000 C325.673,223.521 327.002,234.001 327.000,234.000 C327.001,233.998 334.999,234.000 335.000,234.000 C334.999,233.997 333.787,217.712 337.000,205.000 C340.206,192.314 347.999,180.001 348.000,180.000 C347.998,180.000 347.989,174.645 346.000,174.000 C343.529,173.199 340.251,180.435 336.000,180.000 C333.093,179.702 331.433,175.516 329.000,176.000 C327.629,176.273 327.406,177.836 326.000,178.000 C324.151,178.215 323.093,175.541 321.000,175.000 C317.849,174.185 316.049,177.597 313.000,177.000 C309.274,176.270 308.821,170.853 305.000,170.000 C302.020,169.335 299.001,172.001 299.000,172.000 L299.000,172.000 C299.003,172.009 308.350,197.650 310.000,205.000 C313.350,219.917 314.003,232.999 314.000,233.000 L314.000,233.000 Z"/>
</svg>