<svg 
 xmlns="http://www.w3.org/2000/svg"
 xmlns:xlink="http://www.w3.org/1999/xlink"
 width="717px" height="634px">
<path fill-rule="evenodd"  fill="rgb(205, 10, 94)"
 d="M717.000,11.000 C717.348,10.854 598.104,60.918 553.000,58.000 C474.244,52.906 445.353,3.678 358.000,1.000 C327.103,0.053 252.321,4.299 236.000,43.000 C227.056,64.209 244.272,84.182 233.000,103.000 C218.501,127.204 137.811,126.640 125.000,130.000 C79.198,142.013 43.399,164.223 23.000,196.000 C-7.386,243.335 -5.611,309.993 18.500,358.000 C33.242,387.353 61.880,401.788 71.000,439.000 C78.830,470.949 64.802,502.039 57.500,547.000 C52.150,579.939 52.434,601.254 61.000,619.000 C61.617,620.278 62.923,625.148 66.349,628.411 C66.568,628.620 66.908,628.921 67.000,629.000 C79.024,639.279 715.919,633.685 716.000,634.000 C716.003,634.011 715.353,634.281 715.000,634.000 C714.463,633.573 714.958,632.141 715.000,632.000 C715.731,629.556 715.785,256.132 717.000,11.000 L717.000,11.000 Z"/>
</svg>